<mxfile host="app.diagrams.net" modified="2024-02-27T00:15:53.243Z" agent="Mozilla/5.0 (Macintosh; Intel Mac OS X 10_15_7) AppleWebKit/537.36 (KHTML, like Gecko) Chrome/121.0.0.0 Safari/537.36" etag="y5618WuVUfuFj0YaUB6n" version="23.1.7" type="device">
  <diagram name="Page-1" id="QmD3RipjDwReSNjqG_B0">
    <mxGraphModel dx="634" dy="835" grid="1" gridSize="10" guides="1" tooltips="1" connect="1" arrows="1" fold="1" page="1" pageScale="1" pageWidth="850" pageHeight="1100" math="0" shadow="0">
      <root>
        <mxCell id="0" />
        <mxCell id="1" parent="0" />
        <mxCell id="8UCjOMSbNaFA1E6p_6nF-1" value="query" style="text;html=1;align=center;verticalAlign=middle;whiteSpace=wrap;rounded=0;sketch=1;curveFitting=1;jiggle=2;" vertex="1" parent="1">
          <mxGeometry x="170" y="40" width="60" height="30" as="geometry" />
        </mxCell>
        <mxCell id="8UCjOMSbNaFA1E6p_6nF-2" value="Retriever" style="shape=process;whiteSpace=wrap;html=1;backgroundOutline=1;sketch=1;curveFitting=1;jiggle=2;" vertex="1" parent="1">
          <mxGeometry x="280" y="25" width="120" height="60" as="geometry" />
        </mxCell>
        <mxCell id="8UCjOMSbNaFA1E6p_6nF-3" value="context" style="text;html=1;align=center;verticalAlign=middle;whiteSpace=wrap;rounded=0;sketch=1;curveFitting=1;jiggle=2;" vertex="1" parent="1">
          <mxGeometry x="450" y="40" width="60" height="30" as="geometry" />
        </mxCell>
        <mxCell id="8UCjOMSbNaFA1E6p_6nF-4" value="Question-Context Evaluation&lt;br&gt;(LLM)" style="shape=process;whiteSpace=wrap;html=1;backgroundOutline=1;sketch=1;curveFitting=1;jiggle=2;" vertex="1" parent="1">
          <mxGeometry x="280" y="140" width="120" height="60" as="geometry" />
        </mxCell>
        <mxCell id="8UCjOMSbNaFA1E6p_6nF-5" value="quality" style="rhombus;whiteSpace=wrap;html=1;sketch=1;curveFitting=1;jiggle=2;" vertex="1" parent="1">
          <mxGeometry x="300" y="260" width="80" height="80" as="geometry" />
        </mxCell>
        <mxCell id="8UCjOMSbNaFA1E6p_6nF-6" value="" style="endArrow=classic;html=1;rounded=0;exitX=0.5;exitY=1;exitDx=0;exitDy=0;entryX=0.5;entryY=0;entryDx=0;entryDy=0;sketch=1;curveFitting=1;jiggle=2;" edge="1" parent="1" source="8UCjOMSbNaFA1E6p_6nF-4" target="8UCjOMSbNaFA1E6p_6nF-5">
          <mxGeometry width="50" height="50" relative="1" as="geometry">
            <mxPoint x="390" y="440" as="sourcePoint" />
            <mxPoint x="440" y="390" as="targetPoint" />
          </mxGeometry>
        </mxCell>
        <mxCell id="8UCjOMSbNaFA1E6p_6nF-7" value="" style="endArrow=classic;html=1;rounded=0;exitX=1;exitY=0.5;exitDx=0;exitDy=0;entryX=0;entryY=0.5;entryDx=0;entryDy=0;sketch=1;curveFitting=1;jiggle=2;" edge="1" parent="1" source="8UCjOMSbNaFA1E6p_6nF-1" target="8UCjOMSbNaFA1E6p_6nF-2">
          <mxGeometry width="50" height="50" relative="1" as="geometry">
            <mxPoint x="390" y="440" as="sourcePoint" />
            <mxPoint x="440" y="390" as="targetPoint" />
          </mxGeometry>
        </mxCell>
        <mxCell id="8UCjOMSbNaFA1E6p_6nF-8" value="" style="endArrow=classic;html=1;rounded=0;exitX=1;exitY=0.5;exitDx=0;exitDy=0;entryX=0;entryY=0.5;entryDx=0;entryDy=0;sketch=1;curveFitting=1;jiggle=2;" edge="1" parent="1" source="8UCjOMSbNaFA1E6p_6nF-2" target="8UCjOMSbNaFA1E6p_6nF-3">
          <mxGeometry width="50" height="50" relative="1" as="geometry">
            <mxPoint x="390" y="440" as="sourcePoint" />
            <mxPoint x="440" y="390" as="targetPoint" />
          </mxGeometry>
        </mxCell>
        <mxCell id="8UCjOMSbNaFA1E6p_6nF-9" value="eval&lt;br&gt;scores" style="text;html=1;align=center;verticalAlign=middle;whiteSpace=wrap;rounded=0;sketch=1;curveFitting=1;jiggle=2;" vertex="1" parent="1">
          <mxGeometry x="335" y="210" width="60" height="30" as="geometry" />
        </mxCell>
        <mxCell id="8UCjOMSbNaFA1E6p_6nF-11" value="" style="curved=1;endArrow=classic;html=1;rounded=0;exitX=0.5;exitY=1;exitDx=0;exitDy=0;entryX=0.375;entryY=0.033;entryDx=0;entryDy=0;entryPerimeter=0;sketch=1;curveFitting=1;jiggle=2;" edge="1" parent="1" source="8UCjOMSbNaFA1E6p_6nF-1" target="8UCjOMSbNaFA1E6p_6nF-4">
          <mxGeometry width="50" height="50" relative="1" as="geometry">
            <mxPoint x="390" y="440" as="sourcePoint" />
            <mxPoint x="440" y="390" as="targetPoint" />
            <Array as="points">
              <mxPoint x="240" y="100" />
              <mxPoint x="290" y="110" />
              <mxPoint x="300" y="110" />
            </Array>
          </mxGeometry>
        </mxCell>
        <mxCell id="8UCjOMSbNaFA1E6p_6nF-12" value="" style="curved=1;endArrow=classic;html=1;rounded=0;exitX=0.5;exitY=1;exitDx=0;exitDy=0;entryX=0.683;entryY=-0.017;entryDx=0;entryDy=0;entryPerimeter=0;sketch=1;curveFitting=1;jiggle=2;" edge="1" parent="1" source="8UCjOMSbNaFA1E6p_6nF-3" target="8UCjOMSbNaFA1E6p_6nF-4">
          <mxGeometry width="50" height="50" relative="1" as="geometry">
            <mxPoint x="390" y="440" as="sourcePoint" />
            <mxPoint x="440" y="390" as="targetPoint" />
            <Array as="points">
              <mxPoint x="460" y="100" />
              <mxPoint x="390" y="110" />
              <mxPoint x="400" y="110" />
              <mxPoint x="380" y="110" />
            </Array>
          </mxGeometry>
        </mxCell>
        <mxCell id="8UCjOMSbNaFA1E6p_6nF-26" value="Web&lt;br&gt;Search" style="shape=process;whiteSpace=wrap;html=1;backgroundOutline=1;sketch=1;curveFitting=1;jiggle=2;" vertex="1" parent="1">
          <mxGeometry x="169" y="400" width="120" height="60" as="geometry" />
        </mxCell>
        <mxCell id="8UCjOMSbNaFA1E6p_6nF-27" value="" style="edgeStyle=segmentEdgeStyle;endArrow=classic;html=1;curved=0;rounded=0;endSize=8;startSize=8;exitX=0;exitY=0.5;exitDx=0;exitDy=0;entryX=0.5;entryY=0;entryDx=0;entryDy=0;dashed=1;strokeWidth=3;fillColor=#f8cecc;strokeColor=#b85450;sketch=1;curveFitting=1;jiggle=2;" edge="1" parent="1" source="8UCjOMSbNaFA1E6p_6nF-5" target="8UCjOMSbNaFA1E6p_6nF-26">
          <mxGeometry width="50" height="50" relative="1" as="geometry">
            <mxPoint x="289" y="300" as="sourcePoint" />
            <mxPoint x="429" y="390" as="targetPoint" />
          </mxGeometry>
        </mxCell>
        <mxCell id="8UCjOMSbNaFA1E6p_6nF-28" value="INCORRECT" style="text;html=1;align=center;verticalAlign=middle;whiteSpace=wrap;rounded=0;sketch=1;curveFitting=1;jiggle=2;" vertex="1" parent="1">
          <mxGeometry x="195" y="270" width="70" height="30" as="geometry" />
        </mxCell>
        <mxCell id="8UCjOMSbNaFA1E6p_6nF-30" value="AMBIGUOUS" style="text;html=1;align=center;verticalAlign=middle;whiteSpace=wrap;rounded=0;sketch=1;curveFitting=1;jiggle=2;" vertex="1" parent="1">
          <mxGeometry x="335" y="360" width="70" height="30" as="geometry" />
        </mxCell>
        <mxCell id="8UCjOMSbNaFA1E6p_6nF-31" value="" style="edgeStyle=segmentEdgeStyle;endArrow=classic;html=1;curved=0;rounded=0;endSize=8;startSize=8;exitX=0.5;exitY=1;exitDx=0;exitDy=0;entryX=0.75;entryY=0;entryDx=0;entryDy=0;dashed=1;strokeWidth=3;fillColor=#ffe6cc;strokeColor=#d79b00;sketch=1;curveFitting=1;jiggle=2;" edge="1" parent="1" source="8UCjOMSbNaFA1E6p_6nF-5" target="8UCjOMSbNaFA1E6p_6nF-26">
          <mxGeometry width="50" height="50" relative="1" as="geometry">
            <mxPoint x="390" y="440" as="sourcePoint" />
            <mxPoint x="440" y="390" as="targetPoint" />
            <Array as="points">
              <mxPoint x="340" y="360" />
              <mxPoint x="260" y="360" />
            </Array>
          </mxGeometry>
        </mxCell>
        <mxCell id="8UCjOMSbNaFA1E6p_6nF-33" value="Answer&lt;br&gt;Generation&lt;br&gt;(LLM)" style="shape=process;whiteSpace=wrap;html=1;backgroundOutline=1;fillColor=#d5e8d4;strokeColor=#82b366;sketch=1;curveFitting=1;jiggle=2;" vertex="1" parent="1">
          <mxGeometry x="470" y="540" width="120" height="60" as="geometry" />
        </mxCell>
        <mxCell id="8UCjOMSbNaFA1E6p_6nF-34" value="" style="endArrow=classic;html=1;rounded=0;exitX=0.5;exitY=1;exitDx=0;exitDy=0;entryX=0.5;entryY=0;entryDx=0;entryDy=0;fillColor=#f8cecc;strokeColor=#B85450;sketch=1;curveFitting=1;jiggle=2;" edge="1" parent="1" source="8UCjOMSbNaFA1E6p_6nF-26" target="8UCjOMSbNaFA1E6p_6nF-32">
          <mxGeometry width="50" height="50" relative="1" as="geometry">
            <mxPoint x="379" y="440" as="sourcePoint" />
            <mxPoint x="429" y="390" as="targetPoint" />
          </mxGeometry>
        </mxCell>
        <mxCell id="8UCjOMSbNaFA1E6p_6nF-35" value="" style="curved=1;endArrow=classic;html=1;rounded=0;entryX=0;entryY=0.5;entryDx=0;entryDy=0;fillColor=#f8cecc;strokeColor=#B85450;sketch=1;curveFitting=1;jiggle=2;" edge="1" parent="1" target="8UCjOMSbNaFA1E6p_6nF-32">
          <mxGeometry width="50" height="50" relative="1" as="geometry">
            <mxPoint x="180" y="60" as="sourcePoint" />
            <mxPoint x="440" y="390" as="targetPoint" />
            <Array as="points">
              <mxPoint x="110" y="200" />
              <mxPoint x="60" y="380" />
              <mxPoint x="110" y="550" />
            </Array>
          </mxGeometry>
        </mxCell>
        <mxCell id="8UCjOMSbNaFA1E6p_6nF-36" value="" style="curved=1;endArrow=classic;html=1;rounded=0;exitX=0.75;exitY=1;exitDx=0;exitDy=0;entryX=0.383;entryY=0;entryDx=0;entryDy=0;entryPerimeter=0;fillColor=#ffe6cc;strokeColor=#D79B00;sketch=1;curveFitting=1;jiggle=2;" edge="1" parent="1" source="8UCjOMSbNaFA1E6p_6nF-26" target="8UCjOMSbNaFA1E6p_6nF-25">
          <mxGeometry width="50" height="50" relative="1" as="geometry">
            <mxPoint x="300" y="440" as="sourcePoint" />
            <mxPoint x="350" y="390" as="targetPoint" />
            <Array as="points">
              <mxPoint x="280" y="490" />
              <mxPoint x="320" y="490" />
              <mxPoint x="310" y="490" />
              <mxPoint x="330" y="490" />
              <mxPoint x="350" y="500" />
            </Array>
          </mxGeometry>
        </mxCell>
        <mxCell id="8UCjOMSbNaFA1E6p_6nF-37" value="" style="curved=1;endArrow=classic;html=1;rounded=0;entryX=0.5;entryY=0;entryDx=0;entryDy=0;fillColor=#ffe6cc;strokeColor=#D79B00;sketch=1;curveFitting=1;jiggle=2;" edge="1" parent="1" target="8UCjOMSbNaFA1E6p_6nF-25">
          <mxGeometry width="50" height="50" relative="1" as="geometry">
            <mxPoint x="490" y="70" as="sourcePoint" />
            <mxPoint x="350" y="390" as="targetPoint" />
            <Array as="points">
              <mxPoint x="490" y="230" />
              <mxPoint x="450" y="360" />
              <mxPoint x="440" y="350" />
              <mxPoint x="390" y="440" />
            </Array>
          </mxGeometry>
        </mxCell>
        <mxCell id="8UCjOMSbNaFA1E6p_6nF-38" value="" style="curved=1;endArrow=classic;html=1;rounded=0;exitX=0.883;exitY=0.933;exitDx=0;exitDy=0;entryX=0.442;entryY=0;entryDx=0;entryDy=0;entryPerimeter=0;exitPerimeter=0;sketch=1;curveFitting=1;jiggle=2;" edge="1" parent="1" source="8UCjOMSbNaFA1E6p_6nF-3" target="8UCjOMSbNaFA1E6p_6nF-33">
          <mxGeometry width="50" height="50" relative="1" as="geometry">
            <mxPoint x="300" y="440" as="sourcePoint" />
            <mxPoint x="350" y="390" as="targetPoint" />
            <Array as="points">
              <mxPoint x="620" y="280" />
            </Array>
          </mxGeometry>
        </mxCell>
        <mxCell id="8UCjOMSbNaFA1E6p_6nF-39" value="CORRECT" style="text;html=1;align=center;verticalAlign=middle;whiteSpace=wrap;rounded=0;sketch=1;curveFitting=1;jiggle=2;" vertex="1" parent="1">
          <mxGeometry x="390" y="270" width="60" height="30" as="geometry" />
        </mxCell>
        <mxCell id="8UCjOMSbNaFA1E6p_6nF-41" value="answer" style="text;html=1;align=center;verticalAlign=middle;whiteSpace=wrap;rounded=0;sketch=1;curveFitting=1;jiggle=2;" vertex="1" parent="1">
          <mxGeometry x="354" y="660" width="60" height="30" as="geometry" />
        </mxCell>
        <mxCell id="8UCjOMSbNaFA1E6p_6nF-43" value="INCORRECT" style="text;html=1;align=center;verticalAlign=middle;whiteSpace=wrap;rounded=0;sketch=1;curveFitting=1;jiggle=2;" vertex="1" parent="1">
          <mxGeometry x="195" y="600" width="70" height="30" as="geometry" />
        </mxCell>
        <mxCell id="8UCjOMSbNaFA1E6p_6nF-44" value="AMBIGUOUS" style="text;html=1;align=center;verticalAlign=middle;whiteSpace=wrap;rounded=0;sketch=1;curveFitting=1;jiggle=2;" vertex="1" parent="1">
          <mxGeometry x="350" y="600" width="70" height="30" as="geometry" />
        </mxCell>
        <mxCell id="8UCjOMSbNaFA1E6p_6nF-46" value="CORRECT" style="text;html=1;align=center;verticalAlign=middle;whiteSpace=wrap;rounded=0;sketch=1;curveFitting=1;jiggle=2;" vertex="1" parent="1">
          <mxGeometry x="500" y="601" width="60" height="30" as="geometry" />
        </mxCell>
        <mxCell id="8UCjOMSbNaFA1E6p_6nF-48" value="" style="curved=1;endArrow=classic;html=1;rounded=0;exitX=0.5;exitY=1;exitDx=0;exitDy=0;entryX=0.25;entryY=0;entryDx=0;entryDy=0;sketch=1;curveFitting=1;jiggle=2;" edge="1" parent="1" source="8UCjOMSbNaFA1E6p_6nF-32" target="8UCjOMSbNaFA1E6p_6nF-41">
          <mxGeometry width="50" height="50" relative="1" as="geometry">
            <mxPoint x="300" y="440" as="sourcePoint" />
            <mxPoint x="350" y="390" as="targetPoint" />
            <Array as="points">
              <mxPoint x="230" y="640" />
              <mxPoint x="290" y="640" />
              <mxPoint x="350" y="640" />
            </Array>
          </mxGeometry>
        </mxCell>
        <mxCell id="8UCjOMSbNaFA1E6p_6nF-49" value="" style="endArrow=classic;html=1;rounded=0;exitX=0.5;exitY=1;exitDx=0;exitDy=0;entryX=0.5;entryY=0;entryDx=0;entryDy=0;sketch=1;curveFitting=1;jiggle=2;" edge="1" parent="1" source="8UCjOMSbNaFA1E6p_6nF-25" target="8UCjOMSbNaFA1E6p_6nF-41">
          <mxGeometry width="50" height="50" relative="1" as="geometry">
            <mxPoint x="300" y="440" as="sourcePoint" />
            <mxPoint x="350" y="390" as="targetPoint" />
          </mxGeometry>
        </mxCell>
        <mxCell id="8UCjOMSbNaFA1E6p_6nF-50" value="" style="curved=1;endArrow=classic;html=1;rounded=0;exitX=0.5;exitY=1;exitDx=0;exitDy=0;entryX=0.75;entryY=0;entryDx=0;entryDy=0;sketch=1;curveFitting=1;jiggle=2;" edge="1" parent="1" source="8UCjOMSbNaFA1E6p_6nF-33" target="8UCjOMSbNaFA1E6p_6nF-41">
          <mxGeometry width="50" height="50" relative="1" as="geometry">
            <mxPoint x="300" y="440" as="sourcePoint" />
            <mxPoint x="350" y="390" as="targetPoint" />
            <Array as="points">
              <mxPoint x="530" y="640" />
              <mxPoint x="460" y="630" />
              <mxPoint x="410" y="630" />
            </Array>
          </mxGeometry>
        </mxCell>
        <mxCell id="8UCjOMSbNaFA1E6p_6nF-56" value="" style="curved=1;endArrow=classic;html=1;rounded=0;exitX=0.25;exitY=1;exitDx=0;exitDy=0;entryX=0;entryY=0.5;entryDx=0;entryDy=0;fillColor=#ffe6cc;strokeColor=#D79B00;sketch=1;curveFitting=1;jiggle=2;" edge="1" parent="1" source="8UCjOMSbNaFA1E6p_6nF-1" target="8UCjOMSbNaFA1E6p_6nF-25">
          <mxGeometry width="50" height="50" relative="1" as="geometry">
            <mxPoint x="300" y="440" as="sourcePoint" />
            <mxPoint x="350" y="390" as="targetPoint" />
            <Array as="points">
              <mxPoint x="90" y="340" />
              <mxPoint x="90" y="410" />
              <mxPoint x="140" y="540" />
            </Array>
          </mxGeometry>
        </mxCell>
        <mxCell id="8UCjOMSbNaFA1E6p_6nF-32" value="Answer&lt;br&gt;Generation&lt;br&gt;(LLM)" style="shape=process;whiteSpace=wrap;html=1;backgroundOutline=1;fillColor=#f8cecc;strokeColor=#b85450;sketch=1;curveFitting=1;jiggle=2;" vertex="1" parent="1">
          <mxGeometry x="169" y="540" width="120" height="60" as="geometry" />
        </mxCell>
        <mxCell id="8UCjOMSbNaFA1E6p_6nF-57" value="" style="curved=1;endArrow=classic;html=1;rounded=0;exitX=0.367;exitY=1.033;exitDx=0;exitDy=0;exitPerimeter=0;entryX=0;entryY=0.5;entryDx=0;entryDy=0;fillColor=#d5e8d4;strokeColor=#82B366;sketch=1;curveFitting=1;jiggle=2;" edge="1" parent="1" source="8UCjOMSbNaFA1E6p_6nF-1" target="8UCjOMSbNaFA1E6p_6nF-33">
          <mxGeometry width="50" height="50" relative="1" as="geometry">
            <mxPoint x="300" y="440" as="sourcePoint" />
            <mxPoint x="350" y="390" as="targetPoint" />
            <Array as="points">
              <mxPoint x="150" y="270" />
              <mxPoint x="110" y="370" />
              <mxPoint x="150" y="490" />
              <mxPoint x="200" y="520" />
              <mxPoint x="340" y="560" />
            </Array>
          </mxGeometry>
        </mxCell>
        <mxCell id="8UCjOMSbNaFA1E6p_6nF-25" value="Answer&lt;br&gt;Generation&lt;br&gt;(LLM)" style="shape=process;whiteSpace=wrap;html=1;backgroundOutline=1;fillColor=#ffe6cc;strokeColor=#d79b00;sketch=1;curveFitting=1;jiggle=2;" vertex="1" parent="1">
          <mxGeometry x="325" y="540" width="120" height="60" as="geometry" />
        </mxCell>
        <mxCell id="8UCjOMSbNaFA1E6p_6nF-61" value="" style="edgeStyle=segmentEdgeStyle;endArrow=classic;html=1;curved=0;rounded=0;endSize=8;startSize=8;exitX=1;exitY=0.5;exitDx=0;exitDy=0;entryX=0.317;entryY=-0.083;entryDx=0;entryDy=0;entryPerimeter=0;dashed=1;strokeWidth=3;fillColor=#d5e8d4;strokeColor=#82B366;sketch=1;curveFitting=1;jiggle=2;" edge="1" parent="1" source="8UCjOMSbNaFA1E6p_6nF-5" target="8UCjOMSbNaFA1E6p_6nF-33">
          <mxGeometry width="50" height="50" relative="1" as="geometry">
            <mxPoint x="300" y="440" as="sourcePoint" />
            <mxPoint x="350" y="390" as="targetPoint" />
          </mxGeometry>
        </mxCell>
        <mxCell id="8UCjOMSbNaFA1E6p_6nF-62" value="web search&lt;br&gt;context only" style="text;html=1;align=center;verticalAlign=middle;whiteSpace=wrap;rounded=0;fillColor=#dae8fc;strokeColor=#6c8ebf;sketch=1;curveFitting=1;jiggle=2;" vertex="1" parent="1">
          <mxGeometry x="180" y="470" width="100" height="30" as="geometry" />
        </mxCell>
        <mxCell id="8UCjOMSbNaFA1E6p_6nF-63" value="internal + websearch content" style="text;html=1;align=center;verticalAlign=middle;whiteSpace=wrap;rounded=0;fillColor=#dae8fc;strokeColor=#6c8ebf;sketch=1;curveFitting=1;jiggle=2;" vertex="1" parent="1">
          <mxGeometry x="325" y="450" width="110" height="30" as="geometry" />
        </mxCell>
        <mxCell id="8UCjOMSbNaFA1E6p_6nF-64" value="internal content only" style="text;html=1;align=center;verticalAlign=middle;whiteSpace=wrap;rounded=0;fillColor=#dae8fc;strokeColor=#6c8ebf;sketch=1;curveFitting=1;jiggle=2;" vertex="1" parent="1">
          <mxGeometry x="520" y="450" width="80" height="30" as="geometry" />
        </mxCell>
      </root>
    </mxGraphModel>
  </diagram>
</mxfile>
